<svg width="90" height="90" viewBox="0 0 90 90" fill="none" xmlns="http://www.w3.org/2000/svg">
<path fill-rule="evenodd" clip-rule="evenodd" d="M45.4328 65.469C45.2845 65.3129 45.0374 65.3069 44.8814 65.4552C44.7253 65.6035 44.7193 65.8506 44.8676 66.0066C44.8676 66.0066 45.1543 66.3086 45.4746 66.6454C46.0978 67.3011 46.9622 67.6728 47.8669 67.6743C49.8563 67.6777 53.7142 67.6842 55.6331 67.6874C56.4613 67.6888 57.2873 67.4366 57.9154 66.897L57.7869 66.7473C57.1944 67.2559 56.4145 67.4911 55.6335 67.4898L47.8672 67.4767C47.0166 67.4752 46.2038 67.1257 45.6178 66.5093C45.2979 66.1724 45.0108 65.8705 45.0108 65.8705C44.9375 65.7933 44.9406 65.6714 45.0175 65.5984C45.0947 65.5251 45.2166 65.5282 45.2896 65.6051L45.4328 65.469Z" fill="#F61D37"/>
<path fill-rule="evenodd" clip-rule="evenodd" d="M57.9154 66.897C58.0507 66.781 58.1509 66.5331 57.9862 66.3431C57.9099 66.2556 57.8283 66.2107 57.737 66.2013C57.6524 66.1926 57.5562 66.2158 57.4431 66.2779C57.1156 66.4585 56.4498 66.9005 55.6334 66.9074C53.7148 66.9236 49.8572 66.8976 47.8681 66.8943C47.177 66.8931 46.5163 66.609 46.0401 66.1078C45.7198 65.7709 45.4328 65.469 45.4328 65.469L45.2896 65.6051C45.2896 65.6051 45.5766 65.907 45.8969 66.2439C46.4103 66.7844 47.1226 67.0907 47.8678 67.0919C49.8572 67.0953 53.7161 67.1212 55.6351 67.105C56.4926 67.0976 57.1947 66.6405 57.5383 66.451C57.6188 66.407 57.6824 66.3857 57.7397 66.4023C57.7749 66.4125 57.8058 66.4373 57.8367 66.4729C57.9193 66.5676 57.8542 66.6891 57.7869 66.7473L57.9154 66.897Z" fill="#F61D37"/>
<path d="M48.8373 69.528C49.2918 69.528 49.6602 69.1596 49.6602 68.7051C49.6602 68.2506 49.2918 67.8822 48.8373 67.8822C48.3828 67.8822 48.0144 68.2506 48.0144 68.7051C48.0144 69.1596 48.3828 69.528 48.8373 69.528Z" fill="#F61D37"/>
<path d="M54.6285 69.4659C55.0829 69.4659 55.4514 69.0975 55.4514 68.643C55.4514 68.1885 55.0829 67.8201 54.6285 67.8201C54.174 67.8201 53.8055 68.1885 53.8055 68.643C53.8055 69.0975 54.174 69.4659 54.6285 69.4659Z" fill="#F61D37"/>
<path fill-rule="evenodd" clip-rule="evenodd" d="M59.6749 67.668C59.8417 67.2941 62.8568 63.4996 62.5085 65.9051C62.5085 65.9051 65.4644 63.6506 66.5182 64.8422C66.6567 64.9986 66.6389 65.4783 66.3031 65.7535C66.3031 65.7535 67.39 66.0652 67.4182 66.6644C67.4413 67.1597 66.833 67.7956 65.7737 67.7937L59.6749 67.668Z" fill="#FFD274"/>
<path fill-rule="evenodd" clip-rule="evenodd" d="M44.3418 67.6199C44.3418 67.6199 27.8563 67.7421 22.6779 67.6199C21.267 67.5866 18.8919 66.797 19.9857 64.352C20.2054 63.8608 21.2511 62.0901 23.6921 62.5819C23.6921 62.5819 23.7276 60.7694 26.0086 60.8801C26.83 60.9196 28.6862 61.988 30.3013 63.423C30.3013 63.423 31.6162 61.3367 34.5175 63.423C35.3573 64.0271 40.28 66.9811 44.3418 67.6199Z" fill="#FFD274"/>
<path fill-rule="evenodd" clip-rule="evenodd" d="M44.7229 66.1756C44.7229 66.1756 41.8757 62.4346 41.5753 64.8339C41.5753 64.8339 40.6308 64.6747 40.5965 65.4891C40.5837 65.7997 40.9322 66.4425 44.7229 66.1756Z" fill="#FFD274"/>
<path fill-rule="evenodd" clip-rule="evenodd" d="M57.1586 23.5208L57.5967 25.0519L58.0105 24.9738L57.7295 23.3669L57.1586 23.5208Z" fill="#F61D37"/>
<path fill-rule="evenodd" clip-rule="evenodd" d="M60.0565 23.4839L59.5996 24.9686L60.1277 25.1161L60.7496 23.684L60.0565 23.4839Z" fill="#F61D37"/>
<path fill-rule="evenodd" clip-rule="evenodd" d="M61.1357 25.7018L61.4471 26.1793L62.8178 25.489L62.3319 24.837L61.1357 25.7018Z" fill="#F61D37"/>
<path fill-rule="evenodd" clip-rule="evenodd" d="M27.1727 48.7307L27.5988 56.8772L25.7476 56.9114C25.7476 56.9114 25.4402 57.9824 24.7209 58.1807V48.7758L27.1727 48.7307Z" fill="black"/>
<path fill-rule="evenodd" clip-rule="evenodd" d="M26.1179 57.3486C26.0996 57.3012 26.1207 57.2468 26.1674 57.2244C26.2166 57.2007 26.2757 57.2214 26.2993 57.2709C26.3058 57.2844 26.3124 57.3061 26.3154 57.3351C26.3192 57.3717 26.3188 57.4293 26.3162 57.5015C26.3085 57.7169 26.2825 58.076 26.3341 58.3547C26.3496 58.438 26.3719 58.5138 26.4058 58.5738C26.4321 58.6202 26.465 58.6564 26.5104 58.6732C26.5513 58.6881 26.6004 58.6867 26.6595 58.6706C26.7121 58.6561 26.7665 58.6871 26.781 58.7398C26.7954 58.7922 26.7645 58.8468 26.7119 58.8613C26.567 58.9012 26.455 58.8791 26.368 58.8208C26.2498 58.7421 26.1758 58.5843 26.1398 58.3906C26.0855 58.0981 26.1106 57.7209 26.1187 57.4945C26.121 57.428 26.1182 57.3572 26.1179 57.3486Z" fill="black"/>
<path fill-rule="evenodd" clip-rule="evenodd" d="M26.4161 57.65C26.3245 57.5669 26.2306 57.4816 26.1534 57.3858C26.1517 57.3838 26.1307 57.3548 26.122 57.3383C26.1119 57.3192 26.109 57.3024 26.1083 57.2932C26.1062 57.2642 26.1157 57.2428 26.1264 57.2276C26.14 57.2085 26.1589 57.1944 26.1846 57.1884C26.2153 57.1809 26.2632 57.1868 26.3132 57.2237C26.3954 57.285 26.5238 57.4589 26.5466 57.4899C26.5529 57.4987 26.5599 57.509 26.5675 57.5205L26.5832 57.5347C26.681 57.6233 26.7928 57.7287 26.9154 57.813C27.0264 57.8895 27.1461 57.9501 27.2731 57.957C27.3276 57.96 27.3694 58.0064 27.3665 58.0611C27.3635 58.1154 27.3169 58.1573 27.2624 58.1543C27.0977 58.1454 26.9405 58.0683 26.7968 57.9685C26.8693 58.1431 26.9288 58.3322 26.9357 58.4851C26.9443 58.6761 26.8759 58.8161 26.7119 58.8613C26.6594 58.8758 26.6049 58.8448 26.5905 58.7921C26.576 58.7394 26.6069 58.685 26.6595 58.6705C26.7002 58.6593 26.7212 58.63 26.7309 58.5911C26.7464 58.5289 26.7385 58.4495 26.7201 58.3635C26.6642 58.1026 26.5041 57.7893 26.4161 57.65Z" fill="black"/>
<path fill-rule="evenodd" clip-rule="evenodd" d="M27.2624 58.1544C27.3914 58.1613 27.4639 58.1171 27.5031 58.0624C27.5429 58.0068 27.5524 57.9287 27.5312 57.844C27.4995 57.7179 27.3986 57.5736 27.3192 57.5123C27.0433 57.2982 26.6464 57.255 26.3103 57.2175C26.2561 57.2112 26.2072 57.2504 26.2011 57.3044C26.195 57.3588 26.234 57.4075 26.2883 57.4138C26.5904 57.4477 26.9501 57.4757 27.198 57.6684C27.2514 57.7096 27.3182 57.8071 27.3395 57.8921C27.3448 57.9135 27.3523 57.9333 27.3422 57.9475C27.3394 57.9514 27.3336 57.9521 27.327 57.9537C27.3123 57.9574 27.2944 57.958 27.2731 57.957C27.2186 57.9541 27.172 57.9959 27.1691 58.0503C27.1661 58.1046 27.2079 58.1514 27.2624 58.1544Z" fill="black"/>
<path fill-rule="evenodd" clip-rule="evenodd" d="M48.0872 64.3618L54.2446 65.0612L54.0753 65.9105C54.0753 65.9105 55.6087 65.9767 55.4895 66.7436H47.4811L48.0872 64.3618Z" fill="black"/>
<path fill-rule="evenodd" clip-rule="evenodd" d="M54.7033 65.7717C54.7155 65.8149 54.6967 65.862 54.6558 65.8847C54.6081 65.9111 54.5481 65.8936 54.5218 65.8459C54.5076 65.8205 54.4997 65.7777 54.5102 65.7256C54.5224 65.6653 54.5586 65.5803 54.5834 65.5273C54.6776 65.3257 54.7846 65.1254 54.948 64.9706C54.9886 64.932 55.0762 64.8543 55.1556 64.8289C55.2132 64.8105 55.2682 64.8141 55.315 64.8421C55.3618 64.8701 55.3773 64.9307 55.3493 64.9775C55.3229 65.0216 55.2673 65.0378 55.2218 65.016C55.2145 65.0187 55.1935 65.0266 55.1813 65.0341C55.1414 65.0592 55.1048 65.0941 55.0841 65.1139C54.9388 65.2516 54.8462 65.4314 54.7622 65.611C54.7431 65.6518 54.7092 65.7539 54.7033 65.7717Z" fill="black"/>
<path fill-rule="evenodd" clip-rule="evenodd" d="M55.2041 65.0051C55.1649 64.9748 55.1537 64.9195 55.1797 64.876C55.2077 64.8292 55.2683 64.8141 55.3151 64.8421C55.3774 64.8793 55.405 64.9442 55.4024 65.0209C55.3998 65.0918 55.3681 65.1738 55.348 65.2166C55.2453 65.436 55.0555 65.5875 54.8664 65.7289C54.8836 65.7269 54.8961 65.7252 54.9017 65.7249C55.0259 65.7157 55.185 65.6996 55.3214 65.6482C55.3968 65.6198 55.4653 65.5806 55.5118 65.522H55.5101C55.4558 65.517 55.4156 65.469 55.4205 65.4146C55.4251 65.3606 55.4732 65.3201 55.5276 65.325C55.6113 65.3322 55.6706 65.3728 55.6992 65.4222C55.7308 65.4765 55.7364 65.551 55.6762 65.6324C55.608 65.7246 55.5065 65.7895 55.3912 65.833C55.2364 65.8916 55.0565 65.9117 54.9158 65.9219C54.8875 65.9239 54.704 65.9479 54.6226 65.9335C54.5578 65.9222 54.5241 65.8847 54.5123 65.8537C54.5014 65.8254 54.4994 65.775 54.5436 65.7256C54.5867 65.6768 54.7129 65.5968 54.73 65.5843C54.8994 65.4578 55.0769 65.3293 55.1688 65.1329C55.1797 65.1099 55.1968 65.07 55.2031 65.0308C55.2041 65.0232 55.2041 65.0114 55.2041 65.0051Z" fill="black"/>
<path fill-rule="evenodd" clip-rule="evenodd" d="M55.5275 65.3251C55.3898 65.3129 55.2452 65.356 55.121 65.412C55.0133 65.4611 54.9108 65.5231 54.8093 65.584C54.7626 65.612 54.7477 65.6729 54.7757 65.7197C54.8037 65.7665 54.8647 65.7813 54.9115 65.7533C55.006 65.6963 55.1015 65.638 55.2027 65.5922C55.2966 65.5497 55.4056 65.5128 55.51 65.5221C55.5644 65.5267 55.6125 65.4865 55.6171 65.4321C55.622 65.3778 55.5818 65.33 55.5275 65.3251Z" fill="black"/>
<path fill-rule="evenodd" clip-rule="evenodd" d="M50.9097 51.4175C40.7491 43.8754 43.7795 37.542 43.7795 37.542C43.8108 37.4763 43.8895 37.4482 43.9551 37.4794C44.021 37.5106 44.049 37.5892 44.0177 37.655C44.0177 37.655 41.1052 43.8487 51.135 51.2565C51.1768 51.2874 51.1966 51.3401 51.1854 51.3909L48.3414 64.3908L48.0802 64.3618L50.9097 51.4175Z" fill="#678DDA"/>
<path fill-rule="evenodd" clip-rule="evenodd" d="M49.0839 38.2418C49.0839 38.2418 53.606 43.0226 56.7013 46.2952C58.4101 48.1015 58.9727 50.7079 58.1617 53.0584C56.5412 57.7531 54.0086 65.0345 54.0086 65.0345L54.2448 65.0615C54.2448 65.0615 56.7906 57.8391 58.4107 53.1444C59.2541 50.701 58.669 47.9918 56.893 46.114C53.7974 42.8415 49.2753 38.0607 49.2753 38.0607C49.2256 38.0079 49.1419 38.0056 49.0892 38.0556C49.0365 38.1055 49.0342 38.189 49.0839 38.2418Z" fill="#678DDA"/>
<path fill-rule="evenodd" clip-rule="evenodd" d="M39.1974 48.1565L43.6645 37.8092C43.6935 37.7424 43.7709 37.7116 43.8377 37.7404C43.9046 37.7692 43.9353 37.8469 43.9066 37.9136L39.4069 48.3364C39.3868 48.3825 39.3424 48.4135 39.2923 48.4158L27.1859 49.0051L27.1658 48.7231L39.1974 48.1565Z" fill="#678DDA"/>
<path fill-rule="evenodd" clip-rule="evenodd" d="M27.5973 56.8746C27.5973 56.8746 36.6094 56.5863 41.2935 56.4232C43.0313 56.3626 44.603 55.374 45.4101 53.8339L48.0313 48.8309C48.0649 48.7667 48.0402 48.6869 47.9757 48.6533C47.9114 48.6194 47.8317 48.6444 47.7978 48.7087L45.1765 53.7114C44.4135 55.1678 42.9275 56.1024 41.2843 56.1597C36.6001 56.3228 27.5842 56.5998 27.5842 56.5998L27.5973 56.8746Z" fill="#678DDA"/>
<path fill-rule="evenodd" clip-rule="evenodd" d="M50.8898 52.1953L51.0565 52.2806C51.0565 52.2806 52.079 52.6789 52.7263 52.5672C52.7958 52.555 52.8505 52.5007 52.8631 52.4312C52.8756 52.3617 52.8433 52.2918 52.7827 52.2559C52.2273 51.9285 51.0565 51.2396 51.0565 51.2396C51.0565 51.2396 50.9517 52.2358 50.8898 52.1953Z" fill="#6A8FDB"/>
<path fill-rule="evenodd" clip-rule="evenodd" d="M54.6163 63.8653C54.5573 64.0515 54.5033 64.2224 54.4549 64.375C54.4173 64.3849 54.3811 64.3947 54.3462 64.4043C53.8771 64.5338 53.6471 64.6932 53.4511 64.9712L52.9678 64.9162C53.1981 64.5127 53.5117 64.1559 54.2236 63.9596C54.3412 63.9273 54.473 63.8933 54.6163 63.8653ZM49.2114 63.1653C49.4466 63.1653 49.6373 63.3593 49.6373 63.5982C49.6373 63.837 49.4466 64.0307 49.2114 64.0307C48.9761 64.0307 48.7854 63.837 48.7854 63.5982C48.7854 63.3593 48.9761 63.1653 49.2114 63.1653ZM53.0927 62.6965C53.0927 62.6965 52.2853 63.4443 51.2621 63.0909C50.7748 62.9222 50.0079 62.6227 49.665 61.7C49.6205 61.5808 49.4877 61.5198 49.3685 61.564C49.2492 61.6084 49.1883 61.7412 49.2324 61.8604C49.639 62.9548 50.5337 63.3271 51.1115 63.5267C52.3933 63.9698 53.4056 63.0352 53.4056 63.0352C53.4992 62.9489 53.5048 62.8026 53.4185 62.7094C53.3322 62.6158 53.1859 62.6102 53.0927 62.6965ZM53.9047 56.9513C53.9047 56.9513 54.7688 57.6329 54.5778 58.6986C54.4868 59.2059 54.3096 60.01 53.4511 60.4917C53.3401 60.5539 53.3006 60.6946 53.3625 60.8056C53.4251 60.9166 53.5657 60.9562 53.6764 60.8939C54.6947 60.323 54.9237 59.3815 55.0317 58.78C55.2712 57.4448 54.191 56.5892 54.191 56.5892C54.0912 56.5105 53.9459 56.5273 53.8672 56.6271C53.7881 56.7269 53.8049 56.8722 53.9047 56.9513ZM49.716 57.2283C50.0626 57.3624 50.426 57.5963 50.7122 57.9999C51.0654 58.4986 51.5763 59.3222 51.2696 60.4485C51.2364 60.5711 51.1095 60.6439 50.9867 60.6103C50.8638 60.577 50.7913 60.4502 50.8246 60.3273C51.0832 59.3772 50.6338 58.6874 50.3357 58.2664C50.1272 57.9722 49.8669 57.7913 49.6126 57.681L49.716 57.2283ZM52.7985 58.3497C53.0334 58.3497 53.2245 58.5437 53.2245 58.7823C53.2245 59.0211 53.0334 59.2151 52.7985 59.2151C52.5633 59.2151 52.3722 59.0211 52.3722 58.7823C52.3722 58.5437 52.5633 58.3497 52.7985 58.3497ZM56.469 58.1336C56.2891 58.0829 56.157 57.9152 56.157 57.7166C56.157 57.4777 56.3478 57.284 56.583 57.284C56.6396 57.284 56.694 57.2952 56.7437 57.3156C56.6551 57.5769 56.5632 57.8506 56.469 58.1336ZM52.1482 57.1756C52.1482 57.1756 51.6297 56.2048 52.2316 55.3051C52.5182 54.8765 53.0028 54.2104 53.9825 54.1133C54.109 54.1004 54.2015 53.9874 54.189 53.8609C54.1765 53.7341 54.0635 53.6415 53.9367 53.654C52.7751 53.7697 52.1881 54.5405 51.8481 55.0485C51.094 56.1761 51.7414 57.3924 51.7414 57.3924C51.801 57.5047 51.941 57.5472 52.0533 57.4876C52.1657 57.4276 52.2082 57.288 52.1482 57.1756ZM30.0434 56.6831C29.6919 56.3982 29.3567 55.9735 29.0728 55.3532C29.0198 55.2376 29.0707 55.1006 29.1865 55.0475C29.3022 54.9948 29.4392 55.0455 29.4921 55.1612C29.8542 55.9525 30.3007 56.3824 30.7583 56.5883C30.8121 56.6123 30.866 56.6334 30.9198 56.6518L30.4362 56.669L30.0434 56.6831ZM32.3681 56.5998C32.6788 56.4894 32.878 56.3586 32.878 56.3586C32.9847 56.2895 33.1277 56.3198 33.197 56.4265C33.2254 56.4703 33.237 56.5201 33.2335 56.5685L32.6528 56.5896L32.3681 56.5998ZM39.1071 56.3491C39.0732 56.3102 39.0399 56.27 39.0079 56.2279C38.6525 55.7607 38.4137 55.0742 38.4828 54.0589C38.4914 53.9317 38.6018 53.8359 38.7286 53.8444C38.8558 53.853 38.9516 53.9634 38.9431 54.0902C38.8838 54.9582 39.0709 55.5492 39.3749 55.9482C39.4899 56.0994 39.6207 56.2226 39.759 56.3231C39.5505 56.3316 39.3331 56.3402 39.1071 56.3491ZM56.8116 55.9337C56.8116 55.9337 56.1511 55.0534 56.6087 54.0724C56.8264 53.6049 57.2033 52.873 58.1567 52.6272C58.2799 52.5953 58.3543 52.4694 58.3224 52.3462C58.2907 52.223 58.1649 52.1489 58.0417 52.1805C56.9111 52.472 56.4489 53.3233 56.1906 53.8774C55.6174 55.1068 56.4427 56.2101 56.4427 56.2101C56.5191 56.3119 56.6637 56.3326 56.7655 56.2565C56.8673 56.1801 56.888 56.0355 56.8116 55.9337ZM36.6278 52.9273C36.6278 52.9273 36.948 54.1663 36.1636 55.0083C35.8217 55.3756 35.2709 55.6599 34.4055 55.7485C34.2789 55.7617 34.1866 55.875 34.1996 56.0015C34.2126 56.128 34.3258 56.2206 34.4525 56.2074C35.4648 56.104 36.1012 55.7522 36.501 55.3229C37.4478 54.3063 37.0749 52.814 37.0749 52.814C37.0436 52.6905 36.9181 52.616 36.7945 52.6473C36.6713 52.6786 36.5965 52.8041 36.6278 52.9273ZM42.6271 53.7061C42.8603 53.7061 43.0494 53.8952 43.0494 54.1281C43.0494 54.3613 42.8603 54.5504 42.6271 54.5504C42.3942 54.5504 42.2051 54.3613 42.2051 54.1281C42.2051 53.8952 42.3942 53.7061 42.6271 53.7061ZM27.3909 53.1797L27.404 53.1942C28.1295 53.9976 29.1975 53.7321 29.1975 53.7321C29.321 53.7015 29.4461 53.7769 29.4768 53.9004C29.5074 54.024 29.4319 54.1488 29.3084 54.1795C29.3084 54.1795 28.2906 54.4312 27.4273 53.827L27.3909 53.1797ZM31.5979 53.3144C31.833 53.3144 32.0239 53.5084 32.0239 53.7473C32.0239 53.9861 31.833 54.1798 31.5979 54.1798C31.3628 54.1798 31.1719 53.9861 31.1719 53.7473C31.1719 53.5084 31.3628 53.3144 31.5979 53.3144ZM40.3197 53.8013C40.3197 53.8013 40.4314 52.5267 41.452 51.9947C41.8967 51.7628 42.5111 51.6781 43.3564 51.8837C43.4799 51.9137 43.6048 51.8376 43.6348 51.714C43.6651 51.5902 43.589 51.4656 43.4651 51.4353C42.4762 51.1952 41.759 51.3144 41.2388 51.5856C40.0071 52.2276 39.8605 53.7591 39.8605 53.7591C39.849 53.8856 39.9422 53.998 40.069 54.0098C40.1959 54.0213 40.3082 53.9281 40.3197 53.8013ZM51.3974 53.1375C51.6327 53.1375 51.8237 53.3312 51.8237 53.57C51.8237 53.8089 51.6327 54.0029 51.3974 54.0029C51.1626 54.0029 50.9715 53.8089 50.9715 53.57C50.9715 53.3312 51.1626 53.1375 51.3974 53.1375ZM30.7866 52.6802C30.7866 52.6802 31.5343 51.8728 32.5814 52.1469C33.0802 52.2774 33.868 52.5172 34.2806 53.4112C34.3339 53.5269 34.4711 53.5773 34.5866 53.5239C34.7022 53.4705 34.7527 53.3335 34.6994 53.2179C34.2101 52.1581 33.2897 51.8557 32.6983 51.7009C31.3861 51.3573 30.4485 52.3666 30.4485 52.3666C30.3619 52.4599 30.3674 52.6061 30.4608 52.6924C30.5541 52.7791 30.7001 52.7735 30.7866 52.6802ZM46.1088 52.2434C46.1203 51.9799 46.0864 51.746 46.0198 51.5384C45.6683 50.4428 44.431 50.117 44.431 50.117C44.3081 50.084 44.235 49.9575 44.2679 49.8343C44.3012 49.7114 44.4277 49.6386 44.5506 49.6716C44.5506 49.6716 46.035 50.0751 46.459 51.3978C46.4708 51.4343 46.4817 51.4712 46.4919 51.5091L46.1088 52.2434ZM38.72 50.1766C38.72 50.1766 38.1346 51.1082 37.0548 51.0324C36.5405 50.9962 35.722 50.9063 35.1513 50.1038C35.0775 50 34.9334 49.976 34.8297 50.0498C34.726 50.1232 34.7017 50.2675 34.7755 50.3713C35.4521 51.3223 36.4127 51.4495 37.0225 51.4923C38.3754 51.5875 39.1104 50.422 39.1104 50.422C39.1783 50.3146 39.146 50.172 39.0383 50.1041C38.9305 50.0362 38.7879 50.0689 38.72 50.1766ZM55.7914 50.6147C56.0266 50.6147 56.2177 50.8088 56.2177 51.0476C56.2177 51.2864 56.0266 51.4801 55.7914 51.4801C55.5565 51.4801 55.3654 51.2864 55.3654 51.0476C55.3654 50.8088 55.5565 50.6147 55.7914 50.6147ZM53.0709 51.0226C53.0709 51.0226 52.9504 49.9285 53.8435 49.3171C54.2691 49.0256 54.9661 48.5874 55.9119 48.8612C56.0342 48.8967 56.162 48.8263 56.1976 48.704C56.2328 48.5818 56.1623 48.4537 56.0401 48.4184C54.9187 48.0936 54.0876 48.591 53.5829 48.9366C52.4638 49.7029 52.6124 51.0726 52.6124 51.0726C52.6262 51.1991 52.7402 51.2904 52.8667 51.2769C52.9932 51.263 53.0848 51.1491 53.0709 51.0226ZM31.8887 48.6098C32.1453 49.0453 32.3341 49.6116 32.2214 50.3291C32.2016 50.455 32.0835 50.5409 31.9577 50.5212C31.832 50.5014 31.746 50.3831 31.7658 50.2576C31.8766 49.552 31.6323 49.0233 31.3591 48.6391L31.8887 48.6098ZM42.7802 50.0073C42.7802 50.0073 41.6819 49.9368 41.2342 48.9514C41.0208 48.482 40.7098 47.7194 41.143 46.8355C41.199 46.7212 41.1519 46.5828 41.0376 46.5268C40.9233 46.4708 40.7849 46.5183 40.7289 46.6323C40.2153 47.6805 40.5612 48.5854 40.8142 49.1422C41.3756 50.3769 42.7503 50.4675 42.7503 50.4675C42.8771 50.4757 42.9871 50.3795 42.9954 50.2524C43.0036 50.1255 42.9074 50.0158 42.7802 50.0073ZM50.2589 49.4278C50.4942 49.4278 50.6849 49.6218 50.6849 49.8607C50.6849 50.0995 50.4942 50.2932 50.2589 50.2932C50.0241 50.2932 49.833 50.0995 49.833 49.8607C49.833 49.6218 50.0241 49.4278 50.2589 49.4278ZM28.0599 49.3721C28.295 49.3721 28.4859 49.5661 28.4859 49.8047C28.4859 50.0435 28.295 50.2375 28.0599 50.2375C27.8247 50.2375 27.6338 50.0435 27.6338 49.8047C27.6338 49.5661 27.8247 49.3721 28.0599 49.3721ZM36.9395 49.1221C37.1744 49.1221 37.3654 49.3158 37.3654 49.5546C37.3654 49.7935 37.1744 49.9875 36.9395 49.9875C36.7043 49.9875 36.5132 49.7935 36.5132 49.5546C36.5132 49.3158 36.7043 49.1221 36.9395 49.1221ZM47.3073 49.946C47.1808 49.8728 47.0954 49.7365 47.0954 49.58C47.0954 49.3468 47.2845 49.1577 47.5178 49.1577C47.5817 49.1577 47.6426 49.1722 47.6973 49.1979L47.3073 49.946ZM47.4216 48.1799C47.6051 48.0452 47.8231 47.9305 48.0817 47.8538C48.6678 47.6798 49.6116 47.4614 50.5795 48.1144C50.6849 48.1855 50.7126 48.3291 50.6414 48.4346C50.5702 48.54 50.4269 48.568 50.3212 48.4968C49.5052 47.946 48.7073 48.1489 48.2129 48.2959C48.0336 48.3489 47.8788 48.4253 47.7451 48.5149L47.4216 48.1799ZM46.3137 46.967C46.4142 47.0987 46.5183 47.2302 46.6194 47.3498C46.4379 47.6314 46.174 47.9048 45.7909 48.1022C45.2473 48.3819 44.3602 48.7719 43.2882 48.3097C43.1713 48.2593 43.1172 48.1236 43.1677 48.0066C43.2181 47.8897 43.3538 47.836 43.4707 47.8864C44.375 48.2758 45.1212 47.9279 45.5797 47.692C45.9418 47.5056 46.1701 47.2338 46.3137 46.967ZM51.8768 43.1849C51.8768 43.1849 52.7903 43.7984 52.6816 44.8754C52.6298 45.3883 52.5149 46.204 51.6956 46.7499C51.5898 46.8204 51.5612 46.9637 51.6317 47.0697C51.7022 47.1755 51.8455 47.2041 51.9515 47.1336C52.923 46.4863 53.0792 45.53 53.1405 44.9219C53.2768 43.5722 52.1341 42.8022 52.1341 42.8022C52.0286 42.7312 51.8853 42.7592 51.8142 42.8648C51.743 42.9704 51.771 43.1138 51.8768 43.1849ZM44.0298 45.6674C44.265 45.6674 44.456 45.8611 44.456 46.0999C44.456 46.3387 44.265 46.5328 44.0298 46.5328C43.7949 46.5328 43.6038 46.3387 43.6038 46.0999C43.6038 45.8611 43.7949 45.6674 44.0298 45.6674ZM55.0805 45.1854C55.3153 45.1854 55.5064 45.3794 55.5064 45.6183C55.5064 45.8571 55.3153 46.0508 55.0805 46.0508C54.8452 46.0508 54.6542 45.8571 54.6542 45.6183C54.6542 45.3794 54.8452 45.1854 55.0805 45.1854ZM50.1911 45.0075C50.426 45.0075 50.617 45.2015 50.617 45.4404C50.617 45.6792 50.426 45.8733 50.1911 45.8733C49.9559 45.8733 49.7648 45.6792 49.7648 45.4404C49.7648 45.2015 49.9559 45.0075 50.1911 45.0075ZM42.1481 41.7482C42.5417 41.9841 43.0006 42.3956 43.1881 43.0825C43.3488 43.6723 43.5462 44.6208 42.8715 45.5735C42.798 45.6776 42.6541 45.7023 42.55 45.6285C42.4462 45.555 42.4215 45.4111 42.4953 45.3073C43.0642 44.5035 42.8787 43.7012 42.743 43.2038C42.6014 42.684 42.2644 42.3623 41.9616 42.1702L42.1481 41.7482ZM46.5542 45.1703C46.5542 45.1703 46.4811 44.0723 47.3995 43.4998C47.837 43.2271 48.5525 42.8194 49.4854 43.1338C49.6063 43.1744 49.7371 43.1094 49.7776 42.9888C49.8185 42.8682 49.7536 42.7373 49.6327 42.6967C48.5265 42.324 47.6746 42.7851 47.1557 43.1084C46.0044 43.8258 46.094 45.2006 46.094 45.2006C46.1022 45.3277 46.2122 45.4239 46.3391 45.4157C46.4662 45.4074 46.5624 45.2974 46.5542 45.1703ZM44.9196 43.7453C45.1548 43.7453 45.3458 43.9392 45.3458 44.178C45.3458 44.4168 45.1548 44.6109 44.9196 44.6109C44.6847 44.6109 44.4936 44.4168 44.4936 44.178C44.4936 43.9392 44.6847 43.7453 44.9196 43.7453ZM44.4083 38.3655C44.4083 38.3655 45.4312 38.7719 45.5527 39.8476C45.6104 40.3599 45.6707 41.1812 44.9854 41.8881C44.8968 41.9795 44.8991 42.1256 44.9904 42.2142C45.082 42.3028 45.2279 42.3005 45.3165 42.2091C46.1292 41.3709 46.0795 40.4033 46.011 39.7958C45.8584 38.448 44.5789 37.9371 44.5789 37.9371C44.4607 37.89 44.3266 37.9477 44.2795 38.0659C44.2324 38.1842 44.29 38.3184 44.4083 38.3655ZM47.382 40.0999C47.6172 40.0999 47.808 40.2938 47.808 40.5326C47.808 40.7715 47.6172 40.9654 47.382 40.9654C47.1468 40.9654 46.9561 40.7715 46.9561 40.5326C46.9561 40.2938 47.1468 40.0999 47.382 40.0999ZM47.9842 36.8402L48.2899 37.1649C47.9763 38.0709 48.3581 38.7824 48.6154 39.2206C49.1639 40.1539 50.2636 40.1093 50.2636 40.1093C50.3907 40.1042 50.4981 40.2034 50.503 40.3306C50.5083 40.4577 50.4092 40.5651 50.2817 40.5701C50.2817 40.5701 48.905 40.6237 48.2178 39.4543C47.9081 38.9272 47.4693 38.0634 47.8706 36.9672C47.8917 36.9097 47.9335 36.8656 47.9842 36.8402Z" fill="#668CDA"/>
<path fill-rule="evenodd" clip-rule="evenodd" d="M43.537 29.0052C43.537 29.0052 45.675 28.1223 49.92 29.6183L49.5636 30.0811L43.537 29.0052Z" fill="black"/>
<path fill-rule="evenodd" clip-rule="evenodd" d="M51.6561 20.9725C51.6779 20.946 51.0813 26.6824 51.0813 26.6824L43.3502 27.276L43.7126 21.6664C43.7126 21.6664 51.6344 20.999 51.6561 20.9725Z" fill="white"/>
<path fill-rule="evenodd" clip-rule="evenodd" d="M50.9913 26.5902L51.5576 20.9626C51.5632 20.9083 51.6117 20.8687 51.666 20.8742C51.7204 20.8796 51.7599 20.9281 51.7546 20.9824L51.1794 26.6923C51.1748 26.7399 51.1366 26.7773 51.0889 26.7809L43.3608 27.3746C43.3064 27.3787 43.2587 27.338 43.2547 27.2836C43.2504 27.2292 43.2913 27.1817 43.3456 27.1775L50.9913 26.5902Z" fill="#69BAC9"/>
<path fill-rule="evenodd" clip-rule="evenodd" d="M43.8065 21.7479L43.7208 23.0817L43.4517 27.2823C43.4484 27.3368 43.4013 27.3781 43.3469 27.3746C43.2922 27.3712 43.251 27.3241 43.2543 27.2697L43.5235 23.0691L43.6147 21.6504C43.6177 21.6016 43.6559 21.5624 43.7047 21.5582L51.6475 20.874C51.7019 20.8693 51.75 20.9097 51.7546 20.964C51.7592 21.0183 51.719 21.0663 51.6647 21.071L43.8065 21.7479Z" fill="#69BAC9"/>
<path fill-rule="evenodd" clip-rule="evenodd" d="M55.5065 24.7158L50.1256 21.4297L48.0917 25.1355L53.3335 28.0096L55.5065 24.7158Z" fill="white"/>
<path fill-rule="evenodd" clip-rule="evenodd" d="M53.2877 27.838L55.4244 24.6606C55.4547 24.6154 55.5163 24.6033 55.5614 24.6337C55.6069 24.6642 55.6187 24.7257 55.5884 24.7709L53.4014 28.0229C53.373 28.0652 53.317 28.079 53.2722 28.0546L48.0386 25.212C47.9908 25.186 47.973 25.1259 47.999 25.078C48.0251 25.0301 48.085 25.0123 48.1331 25.0384L53.2877 27.838Z" fill="#69BAC9"/>
<path fill-rule="evenodd" clip-rule="evenodd" d="M50.1625 21.5679L48.1724 25.173C48.1461 25.2208 48.0858 25.2382 48.0383 25.2118C47.9906 25.1855 47.9731 25.1253 47.9995 25.0775L50.0393 21.382C50.0521 21.3584 50.0742 21.3411 50.1002 21.3342C50.1266 21.3273 50.1543 21.3314 50.1773 21.3454L55.5579 24.6315C55.6043 24.6599 55.6192 24.7208 55.5908 24.7673C55.5622 24.8139 55.5016 24.8286 55.4548 24.8002L50.1625 21.5679Z" fill="#69BAC9"/>
<path fill-rule="evenodd" clip-rule="evenodd" d="M38.8324 25.537L44.9173 22.3805L47.3346 26.6763L40.9664 29.8973L38.8324 25.537Z" fill="white"/>
<path fill-rule="evenodd" clip-rule="evenodd" d="M47.2132 26.7042L44.831 22.4286C44.8044 22.381 44.8217 22.3206 44.8693 22.2941C44.9169 22.2676 44.9772 22.2847 45.0036 22.3324L47.4364 26.6988C47.4496 26.7224 47.4526 26.7504 47.4443 26.7763C47.4364 26.8021 47.4179 26.8236 47.3937 26.8355L40.9298 30.0266C40.8808 30.0507 40.8214 30.0307 40.7973 29.9818C40.7731 29.9329 40.7932 29.8736 40.8421 29.8494L47.2132 26.7042Z" fill="#69BAC9"/>
<path fill-rule="evenodd" clip-rule="evenodd" d="M38.9619 25.5812L40.9755 29.8963C40.9987 29.9456 40.9773 30.0045 40.9279 30.0276C40.8784 30.0507 40.8196 30.0292 40.7964 29.9799L38.7426 25.579C38.7203 25.5309 38.7398 25.4738 38.7868 25.4494L44.8718 22.2929C44.9203 22.2677 44.9799 22.2866 45.0051 22.335C45.0302 22.3835 45.0114 22.4431 44.9628 22.4683L38.9619 25.5812Z" fill="#69BAC9"/>
<path d="M50.8533 26.7024L50.2592 26.3572L48.0444 30.169L48.6386 30.5142L50.8533 26.7024Z" fill="#69BAC9"/>
<path d="M44.3876 28.2365L43.7836 28.5437L45.7819 32.4733L46.3859 32.1662L44.3876 28.2365Z" fill="#69BAC9"/>
<path d="M47.5476 27.0218L46.9073 27.0262L46.9382 31.4347L47.5784 31.4302L47.5476 27.0218Z" fill="#69BAC9"/>
<path fill-rule="evenodd" clip-rule="evenodd" d="M49.7649 29.8412L43.5371 29.0052C43.5371 29.0052 39.5757 31.3177 40.1176 34.1701C40.6005 36.713 43.9439 37.2484 43.9439 37.2484L49.7649 29.8412Z" fill="#3768BE"/>
<path fill-rule="evenodd" clip-rule="evenodd" d="M41.0784 29.4933C41.1006 29.6074 41.1936 29.6777 41.3174 29.7119C41.4665 29.7531 41.6608 29.7425 41.7625 29.7342C42.3667 29.685 43.6181 29.1604 43.6181 29.1604C43.6566 29.1442 43.6746 29.0997 43.6585 29.0612C43.6422 29.0226 43.5979 29.0045 43.5594 29.0207C43.5594 29.0207 42.3395 29.5352 41.75 29.5832C41.6608 29.5905 41.4893 29.6022 41.3578 29.5659C41.2946 29.5484 41.2385 29.5227 41.2272 29.4645C41.2192 29.4234 41.1795 29.3965 41.1384 29.4045C41.0974 29.4125 41.0704 29.4523 41.0784 29.4933Z" fill="#3768BE"/>
<path fill-rule="evenodd" clip-rule="evenodd" d="M43.5982 29.0154C42.9806 28.9372 42.2817 28.8731 41.6666 29.0243C41.5646 29.0494 41.3658 29.1057 41.2324 29.1971C41.1211 29.2733 41.0554 29.3745 41.0785 29.4934C41.0865 29.5344 41.1262 29.5613 41.1673 29.5533C41.2083 29.5454 41.2353 29.5056 41.2273 29.4645C41.2157 29.4044 41.2619 29.3607 41.318 29.3221C41.436 29.2413 41.6127 29.1936 41.7029 29.1715C42.3003 29.0246 42.9793 29.0897 43.579 29.1658C43.6207 29.171 43.6585 29.1416 43.664 29.1001C43.6691 29.0586 43.6396 29.0207 43.5982 29.0154Z" fill="#3768BE"/>
<path fill-rule="evenodd" clip-rule="evenodd" d="M43.49 29.0309C43.4932 29.0262 43.4974 29.0219 43.5019 29.018C43.5335 28.9909 43.5816 28.9948 43.6087 29.0267C43.6258 29.0468 43.642 29.0819 43.611 29.1241C43.6065 29.1306 43.5965 29.141 43.5819 29.1518C43.5545 29.1723 43.4993 29.2048 43.4861 29.2126C43.3657 29.2851 43.2443 29.3557 43.1223 29.4256C42.7938 29.6138 42.4659 29.8038 42.1399 29.9969C41.1939 30.5575 40.2424 31.1317 39.3691 31.8037C39.3358 31.8292 39.2881 31.823 39.2626 31.7898C39.2371 31.7567 39.2435 31.7091 39.2765 31.6836C40.155 31.0079 41.1113 30.4302 42.0624 29.8665C42.3891 29.6731 42.7176 29.4827 43.0471 29.2941C43.1678 29.2248 43.2886 29.1547 43.408 29.0828C43.4183 29.0767 43.4728 29.0417 43.49 29.0309ZM43.4761 29.0879C43.478 29.102 43.4841 29.1142 43.4932 29.1248C43.4838 29.1139 43.4783 29.1011 43.4761 29.0879Z" fill="#3768BE"/>
<path fill-rule="evenodd" clip-rule="evenodd" d="M43.5671 29.0368C43.2849 29.1933 43.0053 29.433 42.7332 29.6191C41.9779 30.1357 41.2454 30.6784 40.5218 31.2385C39.8591 31.7512 39.1286 32.1912 38.5064 32.7543C38.4754 32.7824 38.4728 32.8304 38.5012 32.8613C38.5289 32.8924 38.5772 32.8947 38.6082 32.8667C39.2275 32.3061 39.955 31.8687 40.6144 31.3583C41.3358 30.8001 42.066 30.2591 42.819 29.7442C43.0872 29.5607 43.3626 29.3236 43.6406 29.1694C43.6771 29.1491 43.6905 29.1029 43.6702 29.0664C43.6497 29.0298 43.6037 29.0166 43.5671 29.0368Z" fill="#3768BE"/>
<path d="M39.2613 31.9531C39.3625 31.9531 39.4445 31.8714 39.4445 31.7706C39.4445 31.6698 39.3625 31.5881 39.2613 31.5881C39.1601 31.5881 39.078 31.6698 39.078 31.7706C39.078 31.8714 39.1601 31.9531 39.2613 31.9531Z" fill="#3768BE"/>
<path d="M38.5362 32.9951C38.6374 32.9951 38.7194 32.9134 38.7194 32.8126C38.7194 32.7118 38.6374 32.6301 38.5362 32.6301C38.435 32.6301 38.3529 32.7118 38.3529 32.8126C38.3529 32.9134 38.435 32.9951 38.5362 32.9951Z" fill="#3768BE"/>
<path fill-rule="evenodd" clip-rule="evenodd" d="M43.7564 29.3729C43.7508 29.3849 43.734 29.4201 43.732 29.424C43.6862 29.5106 43.6457 29.6001 43.6078 29.6903C43.5027 29.9415 43.4125 30.214 43.428 30.4898C43.4303 30.5361 43.4345 30.5922 43.4474 30.645C43.4576 30.6874 43.4728 30.7283 43.5024 30.7553C43.5334 30.7834 43.5357 30.8314 43.5073 30.8623C43.4793 30.8932 43.4312 30.8954 43.4003 30.8673C43.3061 30.7815 43.283 30.6164 43.2764 30.4983C43.2599 30.1996 43.3542 29.9037 43.4681 29.6317C43.5077 29.5374 43.5502 29.4437 43.5979 29.3533C43.6002 29.3489 43.6111 29.3224 43.6213 29.3031C43.6305 29.2859 43.6411 29.2723 43.648 29.2656C43.6658 29.2486 43.6846 29.2439 43.6987 29.243C43.7402 29.2402 43.7765 29.2719 43.7791 29.3137C43.7808 29.3367 43.7719 29.3579 43.7564 29.3729Z" fill="white"/>
<path fill-rule="evenodd" clip-rule="evenodd" d="M43.5103 30.761C43.5133 30.7589 43.5195 30.7545 43.5231 30.7508C43.5297 30.7443 43.536 30.7366 43.5419 30.7282C43.6009 30.6454 43.6404 30.5012 43.6506 30.4609C43.7491 30.0772 43.7248 29.6585 43.6602 29.2711C43.6533 29.2299 43.6813 29.1908 43.7225 29.1839C43.764 29.177 43.8028 29.2049 43.8097 29.2462C43.8776 29.654 43.901 30.0947 43.7972 30.4987C43.7827 30.5563 43.7129 30.7846 43.6203 30.8675C43.5884 30.8963 43.5528 30.9117 43.5172 30.9134C43.4803 30.9152 43.4405 30.9037 43.4003 30.8673C43.3693 30.8391 43.3673 30.7912 43.3953 30.7602C43.4237 30.7293 43.4714 30.7271 43.5024 30.7553C43.5047 30.7573 43.508 30.7596 43.5103 30.761Z" fill="white"/>
<path fill-rule="evenodd" clip-rule="evenodd" d="M44.0278 32.4033L45.5653 37.0641L47.4203 36.4576L49.0839 38.222L49.8795 37.6153L50.9666 38.9009L54.986 35.2363C54.986 35.2363 53.3698 32.6755 52.2277 30.8654C51.5945 29.8621 50.3147 29.4849 49.2387 29.9844C47.1373 30.9598 44.0278 32.4033 44.0278 32.4033Z" fill="#FFD274"/>
<path fill-rule="evenodd" clip-rule="evenodd" d="M51.9914 33.7757C51.938 33.835 51.8847 33.8948 51.8227 33.9449C51.6073 34.1194 51.3932 34.2972 51.1609 34.4485C50.3314 34.9888 49.6037 35.3894 48.7304 35.8184C48.3133 36.0234 47.89 36.2161 47.469 36.413C47.4525 36.4207 47.4199 36.4426 47.4199 36.4426L47.6133 36.6791C47.6133 36.6791 47.6551 36.6595 47.6759 36.6498C48.0979 36.4517 48.5219 36.2572 48.9399 36.0504C49.8241 35.6128 50.5594 35.2034 51.3965 34.6492C51.6982 34.4493 52.027 34.2541 52.2325 33.956C52.3429 33.7963 52.1084 33.6191 51.9914 33.7757Z" fill="#E64B4D"/>
<path fill-rule="evenodd" clip-rule="evenodd" d="M52.4198 32.221C52.4198 32.221 52.8826 34.6974 49.949 37.5419C49.9293 37.561 49.8894 37.5993 49.8894 37.5993L50.0759 37.8377C50.0759 37.8377 50.1223 37.7931 50.1454 37.7709C53.2328 34.7767 52.6293 31.999 52.6293 31.999C52.6121 31.9177 52.5321 31.8657 52.4507 31.8829C52.3693 31.9002 52.4026 32.1397 52.4198 32.221Z" fill="#E64B4D"/>
<path fill-rule="evenodd" clip-rule="evenodd" d="M52.3172 31.0018C52.3172 31.0018 52.6918 33.152 51.2799 34.7652C50.5578 35.5904 49.3883 36.3015 47.4203 36.4576L48.037 37.1488C48.037 37.1488 53.5151 36.187 52.5459 31.307C52.5001 31.0753 52.4171 31.0362 52.3172 31.0018Z" fill="#3768BE"/>
<path fill-rule="evenodd" clip-rule="evenodd" d="M50.962 38.897C50.962 38.897 51.7708 39.7434 52.5499 40.5589C53.4169 41.466 54.7327 41.7846 55.9186 41.3745V41.3745C57.4801 40.8344 58.6361 39.504 58.9527 37.8825C59.6823 34.1772 60.3491 30.6458 60.8041 26.7224C60.8202 26.582 60.7425 26.4475 60.6127 26.3914C60.4733 26.3322 60.2931 26.3233 60.1584 26.557C60.1584 26.557 59.8444 25.8606 59.3457 26.2773C59.3457 26.2773 58.9784 25.6723 58.5188 26.1217C58.5188 26.1217 58.0059 25.4554 57.629 26.2764C57.629 26.2764 56.8456 25.9629 56.5505 27.5339L54.9679 35.227L50.962 38.897Z" fill="#A62B2A"/>
<path fill-rule="evenodd" clip-rule="evenodd" d="M54.1093 38.9672L54.973 35.2184L54.719 35.458L53.8923 38.9259C53.881 38.9858 53.9204 39.0437 53.9802 39.0551C54.04 39.0665 54.0981 39.0271 54.1093 38.9672Z" fill="black"/>
<path d="M58.254 28.0425C58.2372 28.0554 58.2906 28.136 58.2962 28.1475C58.3525 28.262 58.4075 28.3775 58.4612 28.4933C58.5067 28.5914 58.5488 28.6911 58.5857 28.7928C58.6127 28.8662 58.6374 28.9403 58.6608 29.0149C58.6813 29.0804 58.6997 29.1464 58.7159 29.213C58.7649 29.4147 58.847 29.8943 58.564 29.9887C58.4704 30.0199 58.3996 29.9497 58.3762 29.8641C58.339 29.7282 58.395 29.5807 58.4701 29.4681C58.6671 29.1725 59.0654 29.0417 59.404 29.0245" stroke="black" stroke-width="0.00219619" stroke-miterlimit="2.28659" stroke-linecap="round" stroke-linejoin="round"/>
<path fill-rule="evenodd" clip-rule="evenodd" d="M57.629 26.2776C57.629 26.2776 58.2151 26.5993 58.5873 26.9921C58.6746 27.0861 58.7013 27.2224 58.6555 27.3433C58.6097 27.4641 58.4994 27.5486 58.3709 27.5613C58.3383 27.5639 58.3014 27.5667 58.2622 27.5691C58.0497 27.5823 57.6511 27.5357 57.2284 27.4704C57.1747 27.4621 57.124 27.4991 57.1158 27.553C57.1075 27.6069 57.1444 27.6575 57.1985 27.6658C57.6382 27.7337 58.0537 27.7802 58.2747 27.7664C58.3149 27.7639 58.3524 27.761 58.3884 27.7582C58.389 27.7582 58.3897 27.7581 58.3903 27.758C58.5936 27.738 58.7682 27.6044 58.8403 27.4133C58.9128 27.2222 58.8706 27.0066 58.7313 26.8569C58.444 26.5535 57.9608 26.282 57.7262 26.1595C57.7153 26.1539 57.7008 26.1443 57.7008 26.1443C57.6709 26.1896 57.629 26.2776 57.629 26.2776Z" fill="#DE735A"/>
<path fill-rule="evenodd" clip-rule="evenodd" d="M57.4538 27.6387C57.4538 27.6387 57.4113 27.8847 57.463 28.1021C57.5032 28.2706 57.5981 28.4192 57.7832 28.4634C57.8804 28.4867 58.2217 28.5265 58.3818 27.7137C58.3923 27.6602 58.3574 27.6082 58.3041 27.5977C58.2507 27.5871 58.1986 27.622 58.1881 27.6756C58.137 27.9339 58.0712 28.0889 58.0023 28.1795C57.9302 28.2747 57.8616 28.279 57.8294 28.2712C57.7233 28.2459 57.6785 28.1528 57.6554 28.0563C57.6126 27.8763 57.6485 27.6725 57.6485 27.6725C57.6577 27.6188 57.6218 27.5676 57.5678 27.5582C57.5141 27.5489 57.463 27.5849 57.4538 27.6387Z" fill="#DE735A"/>
<path fill-rule="evenodd" clip-rule="evenodd" d="M58.5785 26.7155C58.6005 26.5288 58.6206 26.3216 58.6381 26.0917C58.6397 26.0739 58.6361 26.0568 58.6289 26.0417C58.6279 26.0395 58.6276 26.0341 58.6256 26.0353C58.5801 26.0622 58.5192 26.1216 58.5192 26.1216C58.5195 26.1205 58.45 26.0431 58.449 26.0455C58.4447 26.0554 58.4421 26.0655 58.4411 26.0767C58.424 26.3036 58.4042 26.5079 58.3821 26.6921C58.3759 26.7463 58.4144 26.7955 58.4688 26.8019C58.5228 26.8084 58.5719 26.7696 58.5785 26.7155Z" fill="#DE735A"/>
<path fill-rule="evenodd" clip-rule="evenodd" d="M58.274 27.6664C58.2618 27.9319 58.2754 28.1671 58.331 28.3214C58.3801 28.4574 58.4628 28.5389 58.5735 28.5597C58.6357 28.5715 58.7323 28.5943 58.8433 28.5443C58.9434 28.499 59.0637 28.3892 59.1711 28.1194C59.2969 27.804 59.4158 27.2481 59.487 26.276C59.4893 26.2465 59.487 26.1871 59.487 26.1871C59.4422 26.2025 59.3951 26.2366 59.347 26.2759C59.3302 26.25 59.3127 26.2265 59.2936 26.2066C59.2936 26.2066 59.2907 26.2534 59.29 26.2616C59.2211 27.2024 59.1091 27.741 58.9876 28.0462C58.9095 28.2421 58.8347 28.3313 58.7619 28.3641C58.6997 28.3923 58.645 28.3721 58.6101 28.3655C58.5626 28.3566 58.5379 28.3123 58.5168 28.2543C58.4677 28.118 58.4608 27.9098 58.4714 27.6754C58.474 27.6209 58.4318 27.5747 58.3771 27.5722C58.3228 27.5697 58.2763 27.6119 58.274 27.6664Z" fill="#DE735A"/>
<path fill-rule="evenodd" clip-rule="evenodd" d="M59.5012 28.6818C59.2973 28.6702 59.178 28.4922 59.1392 28.2149C59.0644 27.6811 59.268 26.7581 59.2706 26.5406C59.2713 26.486 59.3161 26.4423 59.3708 26.443C59.4254 26.4437 59.4689 26.4885 59.4683 26.5431C59.4656 26.7568 59.2614 27.6631 59.3349 28.1875C59.3457 28.2661 59.3629 28.3352 59.3902 28.3894C59.4192 28.4469 59.46 28.4849 59.5233 28.4848C59.5388 28.4848 59.5539 28.4884 59.5678 28.4954C59.5707 28.4952 59.6386 28.488 59.7048 28.386C59.8409 28.1764 60.0003 27.5445 60.0678 26.4305C60.0682 26.4238 60.0701 26.4082 60.0701 26.4082C60.1004 26.4471 60.1291 26.4968 60.1591 26.5571C60.1897 26.5036 60.2237 26.4549 60.2691 26.4235C60.2691 26.4235 60.2678 26.4442 60.2671 26.4546C60.1957 27.6221 60.0135 28.2735 59.8705 28.4937C59.7773 28.6371 59.6847 28.6784 59.6205 28.6901C59.5678 28.6998 59.5266 28.6909 59.5012 28.6818Z" fill="#DE735A"/>
<path fill-rule="evenodd" clip-rule="evenodd" d="M60.2349 28.7119C60.167 28.6992 60.11 28.6569 60.0672 28.5846C60.0187 28.5031 59.9881 28.3745 59.9746 28.2172C59.9384 27.7948 60.0164 27.145 60.0484 26.7598C60.0573 26.6505 60.2546 26.6446 60.2454 26.7555C60.2131 27.1391 60.1357 27.7819 60.1716 28.2003C60.1805 28.3037 60.1957 28.3921 60.223 28.4557C60.2368 28.4879 60.248 28.5152 60.2744 28.5181C60.2853 28.5193 60.2955 28.5222 60.3054 28.5268C60.308 28.5264 60.3225 28.5244 60.336 28.5155C60.3623 28.4984 60.3907 28.4668 60.422 28.4149C60.506 28.2757 60.698 27.5773 60.698 27.5773C60.6961 27.6606 60.587 28.46 60.5712 28.5379C60.561 28.5884 60.5257 28.6105 60.5007 28.6351C60.4276 28.7068 60.3614 28.7226 60.3156 28.7244C60.28 28.7259 60.2523 28.7186 60.2349 28.7119Z" fill="#DE735A"/>
<path fill-rule="evenodd" clip-rule="evenodd" d="M29.7855 38.839L44.0279 32.4033L45.5653 37.0642C45.5653 37.0642 35.981 41.0935 32.2771 41.6488C32.2771 41.6488 28.0874 41.9462 24.8416 40.9373C24.8416 40.9373 24.4203 40.7565 24.6688 40.5482C24.6688 40.5482 24.9955 40.3097 25.3265 40.2641C25.3265 40.2641 24.7019 39.9301 24.4589 39.6463C24.4321 39.6115 24.429 39.564 24.4509 39.526C24.5072 39.4305 24.6667 39.2877 25.1083 39.3935C25.1083 39.3935 24.8259 39.1947 24.6743 38.929C24.6589 38.9011 24.6588 38.8674 24.6739 38.8394C24.7329 38.7299 24.9806 38.5232 26.0112 38.8799C26.0112 38.8799 25.6799 38.5758 25.5601 38.2538C25.538 38.1943 25.5478 38.1275 25.5859 38.0768C25.6241 38.026 25.6855 37.9981 25.7488 38.0028C26.0533 38.066 26.6777 38.2496 27.6929 38.7975C27.6929 38.7975 27.4453 37.9436 28.4611 38.1701C28.4611 38.1701 28.9871 38.3347 29.7855 38.839Z" fill="#A62B2A"/>
<path fill-rule="evenodd" clip-rule="evenodd" d="M27.6674 38.5574C27.6643 38.6359 27.6706 38.7153 27.6882 38.7956C27.6882 38.7956 27.7031 38.8027 27.7108 38.8063C27.9501 38.917 28.3609 39.0255 28.9671 38.9197C29.1828 38.8821 29.4738 38.852 29.7459 38.8399C29.7602 38.8393 29.7887 38.8381 29.7887 38.8381L29.4899 38.6607C29.4899 38.6607 29.4609 38.6639 29.4475 38.6649C29.2612 38.679 29.0815 38.6991 28.9331 38.725C28.2713 38.8405 27.8709 38.6777 27.6949 38.5742C27.685 38.5684 27.6674 38.5574 27.6674 38.5574Z" fill="#DE735A"/>
<path fill-rule="evenodd" clip-rule="evenodd" d="M26.0092 38.8807L25.6492 38.7684C25.6492 38.7684 25.6749 38.802 25.6897 38.8203C25.9114 39.0942 26.428 39.5857 27.5431 40.0947C27.5927 40.1174 27.6514 40.0955 27.674 40.0459C27.6967 39.9962 27.6748 39.9376 27.6252 39.9149C26.8046 39.5404 26.3237 39.1801 26.0505 38.9189C26.0287 38.8982 26.0092 38.8807 26.0092 38.8807Z" fill="#DE735A"/>
<path fill-rule="evenodd" clip-rule="evenodd" d="M25.103 39.3916C24.9848 39.3633 24.8584 39.3393 24.7372 39.3609L24.7585 39.3784C24.7585 39.3784 25.9558 40.348 27.2282 40.7634C27.28 40.7803 27.3359 40.752 27.3528 40.7002C27.3698 40.6483 27.3415 40.5925 27.2896 40.5755C26.3125 40.2559 25.132 39.4128 25.132 39.4128L25.103 39.3916Z" fill="#DE735A"/>
<path fill-rule="evenodd" clip-rule="evenodd" d="M25.3304 40.2622C25.2397 40.2801 25.1436 40.3037 25.0547 40.3379C25.0547 40.3379 25.0653 40.3438 25.071 40.347C25.3675 40.5119 26.4048 41.0718 27.5418 41.4838C27.5621 41.4911 27.6026 41.5056 27.6026 41.5056L28.5743 41.6072C28.5743 41.6072 28.5314 41.5873 28.5146 41.5831C27.2528 41.2616 25.8973 40.5705 25.3434 40.2712C25.3369 40.2677 25.3304 40.2622 25.3304 40.2622Z" fill="#DE735A"/>
<path fill-rule="evenodd" clip-rule="evenodd" d="M49.9249 29.156C49.9249 29.156 49.9289 28.5824 49.9328 28.0052C49.9378 27.2709 50.5275 26.6745 51.2614 26.6609C52.0731 26.6481 53.0117 26.83 53.3049 27.6707C53.3062 27.7299 52.8809 27.9314 52.0392 27.5784C52.0392 27.5784 51.969 28.0189 51.301 28.375C51.301 28.375 51.1586 28.0579 50.7808 28.2706C50.6622 28.3373 50.5963 28.4991 50.7343 28.8167C50.7343 28.8167 50.7067 28.9947 49.9249 29.156Z" fill="black"/>
<path fill-rule="evenodd" clip-rule="evenodd" d="M49.9186 29.8181L49.939 29.137C49.939 29.137 50.5079 29.0434 50.7422 28.8363C50.7422 28.8363 50.5096 28.3889 50.8173 28.2272C50.9803 28.1416 51.2215 28.1885 51.3025 28.3696C51.3025 28.3696 51.9966 27.9681 52.0273 27.5648C52.0348 27.6021 53.0106 27.8956 53.3054 27.6779C53.2652 28.4355 53.2705 29.6966 52.8811 30.064C52.7263 30.2104 52.5395 30.2689 52.2803 30.271L52.2957 30.992C52.2957 30.992 51.5348 29.5816 49.9186 29.8181Z" fill="#A62B2A"/>
<path fill-rule="evenodd" clip-rule="evenodd" d="M52.2768 30.2729C52.2768 30.2729 51.7101 30.0773 51.3593 29.8134C51.3491 29.804 51.3333 29.8039 51.3227 29.8131C51.3122 29.8223 51.3102 29.838 51.3184 29.8494C51.582 30.2095 51.9444 30.4881 52.2906 30.7806L52.2768 30.2729Z" fill="black"/>
<path fill-rule="evenodd" clip-rule="evenodd" d="M50.5168 28.7584C50.5168 28.7584 50.6637 29.0054 50.7711 29.1036C50.8021 29.1318 50.8502 29.1296 50.8782 29.0988C50.9065 29.0679 50.9042 29.0199 50.8736 28.9917C50.7771 28.9039 50.6473 28.6815 50.6473 28.6815C50.6262 28.6454 50.5794 28.6334 50.5435 28.6547C50.5076 28.6759 50.4954 28.7224 50.5168 28.7584Z" fill="black"/>
<path fill-rule="evenodd" clip-rule="evenodd" d="M52.5617 29.0229C52.4793 29.0262 52.3746 29.074 52.3456 29.1723C52.3281 29.2315 52.336 29.315 52.4105 29.4232C52.4378 29.4627 52.4869 29.5158 52.5452 29.549C52.5907 29.5748 52.6411 29.5886 52.6918 29.5819C52.7458 29.5747 52.8025 29.5451 52.8522 29.473C52.873 29.4431 52.8654 29.402 52.8358 29.3813C52.8058 29.3606 52.7646 29.3681 52.7438 29.398C52.7214 29.4305 52.6987 29.448 52.6747 29.4513C52.645 29.4552 52.617 29.4404 52.5923 29.4228C52.5607 29.4004 52.5347 29.3712 52.5192 29.3485C52.477 29.2872 52.4622 29.243 52.4721 29.2094C52.4839 29.1685 52.5324 29.1559 52.5669 29.1546C52.6032 29.1531 52.6315 29.1224 52.6299 29.0861C52.6285 29.0497 52.5979 29.0214 52.5617 29.0229Z" fill="#DE735A"/>
<path fill-rule="evenodd" clip-rule="evenodd" d="M52.8523 29.473C52.8777 29.4364 52.8931 29.3786 52.8895 29.3153C52.8849 29.2325 52.8483 29.1412 52.7716 29.0829C52.7208 29.0444 52.6523 29.0193 52.5617 29.0229C52.5252 29.0244 52.4968 29.0551 52.4985 29.0914C52.4998 29.1278 52.5304 29.1561 52.567 29.1546C52.6207 29.1524 52.6619 29.165 52.6919 29.1879C52.7363 29.2215 52.7554 29.2751 52.7581 29.3228C52.7597 29.3527 52.7561 29.3808 52.7439 29.398C52.7235 29.4279 52.7307 29.469 52.7607 29.4897C52.7907 29.5104 52.8319 29.5029 52.8523 29.473Z" fill="#DE735A"/>
</svg>
